<?xml version="1.0" encoding="utf-8"?>
<!-- Generator: Adobe Illustrator 28.0.0, SVG Export Plug-In . SVG Version: 6.00 Build 0)  -->
<!DOCTYPE svg PUBLIC "-//W3C//DTD SVG 1.1//EN" "http://www.w3.org/Graphics/SVG/1.1/DTD/svg11.dtd" [
	<!ENTITY ns_extend "http://ns.adobe.com/Extensibility/1.0/">
	<!ENTITY ns_ai "http://ns.adobe.com/AdobeIllustrator/10.0/">
	<!ENTITY ns_graphs "http://ns.adobe.com/Graphs/1.0/">
	<!ENTITY ns_vars "http://ns.adobe.com/Variables/1.0/">
	<!ENTITY ns_imrep "http://ns.adobe.com/ImageReplacement/1.0/">
	<!ENTITY ns_sfw "http://ns.adobe.com/SaveForWeb/1.0/">
	<!ENTITY ns_custom "http://ns.adobe.com/GenericCustomNamespace/1.0/">
	<!ENTITY ns_adobe_xpath "http://ns.adobe.com/XPath/1.0/">
]>
<svg version="1.1" id="Layer_1" xmlns:x="&ns_extend;" xmlns:i="&ns_ai;" xmlns:graph="&ns_graphs;"
	 xmlns="http://www.w3.org/2000/svg" xmlns:xlink="http://www.w3.org/1999/xlink" x="0px" y="0px" viewBox="0 0 1000 1000"
	 style="enable-background:new 0 0 1000 1000;" xml:space="preserve">
<style type="text/css">
	.st0{fill:#FFFFFF;}
</style>
<metadata>
	<sfw  xmlns="&ns_sfw;">
		<slices></slices>
		<sliceSourceBounds  bottomLeftOrigin="true" height="448.7" width="951.6" x="24.2" y="-724.4"></sliceSourceBounds>
	</sfw>
</metadata>
<g>
	<g>
		<path class="st0" d="M460.5,454.2c-0.4-2.3-0.9-4.5-1.7-6.6c0,0,0,0,0,0c0.3-0.5,66.7-93,5.2-150.2
			c-61.4-57.2-133.1,17.4-133.5,17.8c0,0,0,0,0,0c-11.4-3.6-22.9-5.8-34.3-6.8c0,0,0,0-0.1,0c-23.4-3.9-56.2,0-56.2,0
			c-11.3,1-22.7,3.2-34,6.7c0,0,0,0,0,0c-0.4-0.4-72.1-75-133.5-17.8c-61.4,57.2,4.9,149.8,5.2,150.2c0,0,0,0,0,0
			c-0.7,2.2-1.3,4.4-1.7,6.6c-6.6,39.6-51.9,51.8-51.9,120.8c0,70.3,47.3,125.7,143.9,125.7h39.6c0,0,0,0,0,0
			c0.2,0.2,15.5,22,47.1,23.3l0,0c0,0,7.3,0.8,24.1,0.2c33.5,0,49.8-23.1,49.9-23.4c0,0,0,0,0,0h39.6c96.6,0,143.9-55.4,143.9-125.7
			C512.4,506.1,467.1,493.8,460.5,454.2z"/>
	</g>
	<g>
		<g>
			<path class="st0" d="M705.2,642.7v-54c30.9-11.4,53.4-46.8,53.4-88.7s-22.5-77.4-53.4-88.7v-54c29.1-10.7,50.8-42.8,53.2-81.6
				H723v16.5c0,12.7-7.2,23.9-17.8,29.5v-7.7c0-11.3-9.2-20.5-20.5-20.5h-1.8c-11.3,0-20.5,9.2-20.5,20.5v7.7
				c-10.6-5.6-17.8-16.7-17.8-29.5v-16.5h-35.4c2.4,38.8,24.1,70.9,53.2,81.6v54C631.6,422.6,609,458,609,500s22.5,77.4,53.4,88.7
				v54c-29.1,10.7-50.8,42.8-53.2,81.6h35.4v-16.5c0-12.7,7.2-23.9,17.8-29.5v7.7c0,11.3,9.2,20.5,20.5,20.5h1.8
				c11.3,0,20.5-9.2,20.5-20.5v-7.7c10.6,5.6,17.8,16.7,17.8,29.5v16.5h35.4C756,685.5,734.3,653.4,705.2,642.7z M644.6,523.6v-47.3
				c0-12.7,7.2-23.9,17.8-29.5v7.7c0,11.3,9.2,20.5,20.5,20.5h1.8c11.3,0,20.5-9.2,20.5-20.5v-7.7c10.6,5.6,17.8,16.7,17.8,29.5
				v47.3c0,12.7-7.2,23.9-17.8,29.5v-7.7c0-11.3-9.2-20.5-20.5-20.5h-1.8c-11.3,0-20.5,9.2-20.5,20.5v7.7
				C651.9,547.5,644.6,536.4,644.6,523.6z"/>
		</g>
		<g>
			<path class="st0" d="M922.4,528.7v-57.5c30.9-11.4,53.4-46.8,53.4-88.7s-22.5-77.4-53.4-88.7v-18.1h-42.7v18.1
				c-30.9,11.4-53.4,46.8-53.4,88.7s22.5,77.4,53.4,88.7v57.5c-30.9,11.4-53.4,46.8-53.4,88.7c0,41.9,22.5,77.4,53.4,88.7v18.1h42.7
				v-18.1c30.9-11.4,53.4-46.8,53.4-88.7C975.8,575.5,953.3,540.1,922.4,528.7z M861.8,406.1v-47.3c0-12.7,7.2-23.9,17.8-29.5v7.7
				c0,11.3,9.2,20.5,20.5,20.5h1.7c11.3,0,20.5-9.2,20.5-20.5v-7.7c10.6,5.6,17.8,16.7,17.8,29.5v47.3c0,12.7-7.2,23.9-17.8,29.5
				v-7.7c0-11.3-9.2-20.5-20.5-20.5h-1.8c-11.3,0-20.5,9.2-20.5,20.5v7.7C869.1,430,861.8,418.9,861.8,406.1z M940.2,641.1
				c0,12.7-7.2,23.9-17.8,29.5v-11.3c0-11.3-9.2-20.5-20.5-20.5h-1.7c-11.3,0-20.5,9.2-20.5,20.5v11.3
				c-10.6-5.6-17.8-16.7-17.8-29.5v-47.3c0-12.7,7.2-23.9,17.8-29.5v4.1c0,11.3,9.2,20.5,20.5,20.5h1.8c11.3,0,20.5-9.2,20.5-20.5
				v-4.1c10.6,5.6,17.8,16.7,17.8,29.5V641.1z"/>
		</g>
	</g>
</g>
</svg>
