<svg width="237" height="74" viewBox="0 0 237 74" fill="none" xmlns="http://www.w3.org/2000/svg">
<path d="M33.1268 35.05H46.5268V53.3C45.1268 54.5667 43.2934 55.5667 41.0268 56.3C38.7601 57.0333 36.3768 57.4 33.8768 57.4C30.8434 57.4 28.1268 56.8667 25.7268 55.8C23.3601 54.7333 21.3434 53.3167 19.6768 51.55C18.0434 49.75 16.7934 47.6833 15.9268 45.35C15.0934 43.0167 14.6768 40.5833 14.6768 38.05C14.6768 35.45 15.1101 32.9333 15.9768 30.5C16.8768 28.0333 18.1268 25.85 19.7268 23.95C21.3601 22.05 23.3434 20.5333 25.6768 19.4C28.0101 18.2667 30.6268 17.7 33.5268 17.7C35.7934 17.7 37.9101 18.0667 39.8768 18.8C41.8768 19.5 43.5268 20.4667 44.8268 21.7L43.7268 28.4C42.6601 27.4333 41.2768 26.6667 39.5768 26.1C37.8768 25.5333 36.1268 25.25 34.3268 25.25C32.5934 25.25 30.9268 25.5333 29.3268 26.1C27.7601 26.6667 26.3768 27.4833 25.1768 28.55C24.0101 29.5833 23.0768 30.8667 22.3768 32.4C21.6768 33.9333 21.3268 35.6667 21.3268 37.6C21.3268 39.5667 21.6601 41.3333 22.3268 42.9C22.9934 44.4333 23.8934 45.7333 25.0268 46.8C26.1601 47.8333 27.4768 48.6333 28.9768 49.2C30.4768 49.7333 32.0768 50 33.7768 50C35.0434 50 36.2601 49.85 37.4268 49.55C38.6268 49.2167 39.6601 48.7667 40.5268 48.2V41.1H33.1268V35.05ZM74.5291 41H60.1791V50.1H76.9791V57H53.5791V18.3H76.9791V25.15H60.1791V34.15H74.5291V41ZM112.565 57H106.765L89.9154 31.95V57H83.3154V18.3H89.1654L105.965 43.2V18.3H112.565V57ZM141.521 41H127.171V50.1H143.971V57H120.571V18.3H143.971V25.15H127.171V34.15H141.521V41ZM162.758 24.8C160.724 24.8 159.058 25.2167 157.758 26.05C156.491 26.85 155.858 27.8833 155.858 29.15C155.858 30.25 156.341 31.1333 157.308 31.8C158.308 32.4667 159.541 33.0667 161.008 33.6C162.508 34.1333 164.124 34.6833 165.858 35.25C167.591 35.7833 169.191 36.4833 170.658 37.35C172.158 38.1833 173.391 39.25 174.358 40.55C175.358 41.85 175.841 43.5167 175.808 45.55C175.808 47.35 175.474 48.9833 174.808 50.45C174.141 51.8833 173.191 53.1167 171.958 54.15C170.724 55.1833 169.258 55.9833 167.558 56.55C165.858 57.1167 163.958 57.4 161.858 57.4C159.324 57.4 156.891 57.0333 154.558 56.3C152.224 55.5667 150.224 54.55 148.558 53.25L149.658 45.95C150.258 46.4833 151.041 47 152.008 47.5C153.008 48 154.074 48.45 155.208 48.85C156.374 49.25 157.558 49.5833 158.758 49.85C159.991 50.0833 161.124 50.2 162.158 50.2C164.224 50.2 165.874 49.8167 167.108 49.05C168.374 48.2833 169.008 47.2833 169.008 46.05C169.008 45.0167 168.508 44.2 167.508 43.6C166.541 42.9667 165.308 42.4 163.808 41.9C162.341 41.3667 160.741 40.8333 159.008 40.3C157.308 39.7667 155.708 39.0667 154.208 38.2C152.741 37.3333 151.508 36.25 150.508 34.95C149.541 33.6167 149.058 31.9 149.058 29.8C149.058 28 149.391 26.3667 150.058 24.9C150.758 23.4 151.708 22.1333 152.908 21.1C154.141 20.0333 155.608 19.2167 157.308 18.65C159.041 18.05 160.941 17.75 163.008 17.75C165.308 17.75 167.491 18.0667 169.558 18.7C171.624 19.3 173.408 20.1833 174.908 21.35L173.758 28.65C173.191 28.15 172.474 27.6833 171.608 27.25C170.741 26.7833 169.808 26.3667 168.808 26C167.808 25.6333 166.774 25.35 165.708 25.15C164.674 24.9167 163.691 24.8 162.758 24.8ZM182.297 18.3H188.897V57H182.297V18.3ZM209.584 24.8C207.55 24.8 205.884 25.2167 204.584 26.05C203.317 26.85 202.684 27.8833 202.684 29.15C202.684 30.25 203.167 31.1333 204.134 31.8C205.134 32.4667 206.367 33.0667 207.834 33.6C209.334 34.1333 210.95 34.6833 212.684 35.25C214.417 35.7833 216.017 36.4833 217.484 37.35C218.984 38.1833 220.217 39.25 221.184 40.55C222.184 41.85 222.667 43.5167 222.634 45.55C222.634 47.35 222.3 48.9833 221.634 50.45C220.967 51.8833 220.017 53.1167 218.784 54.15C217.55 55.1833 216.084 55.9833 214.384 56.55C212.684 57.1167 210.784 57.4 208.684 57.4C206.15 57.4 203.717 57.0333 201.384 56.3C199.05 55.5667 197.05 54.55 195.384 53.25L196.484 45.95C197.084 46.4833 197.867 47 198.834 47.5C199.834 48 200.9 48.45 202.034 48.85C203.2 49.25 204.384 49.5833 205.584 49.85C206.817 50.0833 207.95 50.2 208.984 50.2C211.05 50.2 212.7 49.8167 213.934 49.05C215.2 48.2833 215.834 47.2833 215.834 46.05C215.834 45.0167 215.334 44.2 214.334 43.6C213.367 42.9667 212.134 42.4 210.634 41.9C209.167 41.3667 207.567 40.8333 205.834 40.3C204.134 39.7667 202.534 39.0667 201.034 38.2C199.567 37.3333 198.334 36.25 197.334 34.95C196.367 33.6167 195.884 31.9 195.884 29.8C195.884 28 196.217 26.3667 196.884 24.9C197.584 23.4 198.534 22.1333 199.734 21.1C200.967 20.0333 202.434 19.2167 204.134 18.65C205.867 18.05 207.767 17.75 209.834 17.75C212.134 17.75 214.317 18.0667 216.384 18.7C218.45 19.3 220.234 20.1833 221.734 21.35L220.584 28.65C220.017 28.15 219.3 27.6833 218.434 27.25C217.567 26.7833 216.634 26.3667 215.634 26C214.634 25.6333 213.6 25.35 212.534 25.15C211.5 24.9167 210.517 24.8 209.584 24.8Z" fill="white"/>
<mask id="path-2-outside-1_131_2705" maskUnits="userSpaceOnUse" x="0" y="0" width="44" height="52" fill="black">
<rect fill="white" width="44" height="52"/>
<path d="M2 2H44V52H2V2Z"/>
</mask>
<path d="M2 2V0H0V2H2ZM2 4H44V0H2V4ZM4 52V2H0V52H4Z" fill="white" mask="url(#path-2-outside-1_131_2705)"/>
<mask id="path-4-outside-2_131_2705" maskUnits="userSpaceOnUse" x="193" y="22" width="44" height="52" fill="black">
<rect fill="white" x="193" y="22" width="44" height="52"/>
<path d="M235 72L193 72L193 22L235 22L235 72Z"/>
</mask>
<path d="M235 72L235 74L237 74L237 72L235 72ZM235 70L193 70L193 74L235 74L235 70ZM233 22L233 72L237 72L237 22L233 22Z" fill="white" mask="url(#path-4-outside-2_131_2705)"/>
</svg>
