<svg width="77" height="82" viewBox="0 0 77 82" fill="none" xmlns="http://www.w3.org/2000/svg">
<g id="Group">
<path id="Vector" fill-rule="evenodd" clip-rule="evenodd" d="M24.1508 43.5454L24.2446 61.4147L8.98047 53.8204L20.5348 50.6593L20.4892 44.5143L24.1508 43.5454Z" fill="#F742FF"/>
<path id="Vector_2" fill-rule="evenodd" clip-rule="evenodd" d="M20.4895 44.514L20.535 50.659L8.98071 53.8202L8.61328 27.4961L20.404 32.7386L20.4895 44.514Z" fill="#641069"/>
<path id="Vector_3" fill-rule="evenodd" clip-rule="evenodd" d="M55.625 44.63L55.7787 32.5994L65.1429 30.1587L64.6677 56.4438L55.5273 52.3138L55.625 44.63Z" fill="#C91FD1"/>
<path id="Vector_4" fill-rule="evenodd" clip-rule="evenodd" d="M50.6857 33.9263L50.6014 42.4322L45.0898 43.94L45.1476 35.3695L50.6857 33.9263Z" fill="#641069"/>
<path id="Vector_5" fill-rule="evenodd" clip-rule="evenodd" d="M45.0892 43.9399L50.6007 42.4321L55.6238 44.6298L55.5262 52.3137L64.6665 56.4436L44.9648 62.3858L45.0892 43.9399Z" fill="#F742FF"/>
<path id="Vector_6" fill-rule="evenodd" clip-rule="evenodd" d="M1.03237 64.1024L0 8.74316L33.2558 22.5062L33.2569 81.0795L1.03237 64.1024ZM8.61146 27.496L8.97889 53.8201L24.243 61.4144L24.1492 43.5451L24.1015 34.3833L20.4022 32.7386L8.61146 27.496Z" fill="url(#paint0_linear_131_3350)"/>
<path id="Vector_7" fill-rule="evenodd" clip-rule="evenodd" d="M33.2589 81.0786L33.2578 22.5053V22.4913L76.2451 12.312L76.3062 12.2974L74.9702 67.5987L33.2589 81.1218V81.0786ZM74.953 67.5798L76.2873 12.3284L33.2789 22.5145L33.2795 81.0896L74.953 67.5798Z" fill="#A5A5A5"/>
<path id="Vector_8" fill-rule="evenodd" clip-rule="evenodd" d="M33.2558 22.4919V22.5059L0 8.74281L42.419 0L76.2431 12.3126L33.2558 22.4919ZM40.2055 5.42584L20.2334 9.69037L35.9494 15.9639L40.1683 15.0023L56.0513 11.3814L40.2055 5.42584Z" fill="#4AEAC4"/>
<path id="Vector_9" fill-rule="evenodd" clip-rule="evenodd" d="M76.2858 12.3291L74.9515 67.5805L33.2779 81.0902L33.2773 22.5151L76.2858 12.3291ZM55.7792 32.5995L50.6867 33.927L45.148 35.3702L45.0902 43.9401L44.9654 62.3861L64.6671 56.4439L65.1422 30.1588L55.7792 32.5995Z" fill="url(#paint1_linear_131_3350)"/>
<path id="Vector_10" fill-rule="evenodd" clip-rule="evenodd" d="M40.1692 15.0016L35.9509 15.9632L20.2344 9.69031L40.207 5.42578L40.1692 15.0016Z" fill="#641069"/>
<path id="Vector_11" fill-rule="evenodd" clip-rule="evenodd" d="M40.2057 5.42578L56.051 11.3808L40.168 15.0016L40.2057 5.42578Z" fill="#C91FD1"/>
</g>
<defs>
<linearGradient id="paint0_linear_131_3350" x1="27.9708" y1="99.1869" x2="2.79171" y2="-8.78322" gradientUnits="userSpaceOnUse">
<stop stop-color="#3B99CA"/>
<stop offset="1" stop-color="#858D91"/>
</linearGradient>
<linearGradient id="paint1_linear_131_3350" x1="3.70029" y1="78.282" x2="108.894" y2="20.6717" gradientUnits="userSpaceOnUse">
<stop stop-color="#26DFEB"/>
<stop offset="1" stop-color="#6D6E71"/>
</linearGradient>
</defs>
</svg>
