<svg width="1437" height="286" viewBox="0 0 1437 286" fill="none" xmlns="http://www.w3.org/2000/svg">
<rect x="0.5" y="0.5" width="1435.34" height="284.098" rx="4.5" fill="#171717"/>
<g clip-path="url(#clip0_260_26)">
<rect x="49" y="49" width="149.477" height="149.477" rx="74.7386" fill="url(#paint0_radial_260_26)"/>
<path d="M148.115 208.242C143.363 209.912 138.474 211.539 133.454 213.122H114.627C109.607 211.539 104.718 209.912 99.9662 208.242H148.115ZM173.093 198.531H74.9885C71.2821 196.933 67.6905 195.306 64.2175 193.651H183.864C180.391 195.306 176.799 196.933 173.093 198.531ZM202.314 183.939H45.7666C43.0168 182.333 40.3728 180.706 37.8374 179.059H210.244C207.708 180.706 205.064 182.333 202.314 183.939ZM223.64 169.348H24.441C22.4663 167.736 20.5924 166.109 18.8216 164.468H229.259C227.489 166.109 225.615 167.736 223.64 169.348ZM238.39 154.757H9.69102C8.39047 153.14 7.18816 151.514 6.08574 149.877H241.995C240.893 151.514 239.691 153.14 238.39 154.757ZM247.305 140.165H0.776183C0.0934019 138.546 -0.49292 136.92 -0.981369 135.285H249.062C248.574 136.92 247.988 138.546 247.305 140.165ZM250.797 125.574H-2.71618C-2.76436 124.762 -2.78856 123.949 -2.78856 123.133C-2.78856 122.318 -2.76439 121.505 -2.71627 120.694H250.797C250.845 121.505 250.87 122.318 250.87 123.133C250.87 123.949 250.845 124.762 250.797 125.574ZM249.063 110.982H-0.981827C-0.493441 109.348 0.0928187 107.721 0.775537 106.103H247.305C247.988 107.721 248.574 109.348 249.063 110.982ZM241.996 96.3911H6.08471C7.18706 94.7542 8.3893 93.1273 9.68978 91.5112H238.391C239.692 93.1273 240.894 94.7542 241.996 96.3911ZM229.261 81.7997H18.82C20.5907 80.1585 22.4645 78.5315 24.4392 76.9198H223.642C225.617 78.5315 227.49 80.1585 229.261 81.7997ZM210.246 67.2083H37.835C40.3704 65.5613 43.0143 63.9343 45.764 62.3284H202.317C205.067 63.9343 207.711 65.5613 210.246 67.2083ZM183.867 52.6169H64.2143C67.6872 50.9616 71.2787 49.3345 74.985 47.737H173.096C176.802 49.3345 180.394 50.9616 183.867 52.6169ZM148.119 38.0255H99.9619C104.713 36.356 109.602 34.7287 114.622 33.1456H133.459C138.479 34.7287 143.368 36.356 148.119 38.0255Z" stroke="#171717" stroke-width="2.41579"/>
</g>
<path d="M300.243 99.6169C308.03 107.404 311.924 119.29 311.924 135.684V193.883H295.12V136.709C295.12 126.052 292.66 117.855 287.742 112.117C282.824 106.379 275.857 103.51 266.84 103.51C257.003 103.51 249.216 106.994 243.683 113.757C237.945 120.724 235.281 129.946 235.281 141.627V193.883H218.477V89.3705H233.027L235.281 103.51C243.068 93.2642 254.544 88.141 269.709 88.141C282.414 88.141 292.456 92.0346 300.243 99.6169Z" fill="white"/>
<path d="M411.835 94.4937C419.417 98.7972 425.36 104.945 429.664 112.937C433.967 121.134 436.221 130.561 436.221 141.627C436.221 152.283 433.967 161.505 429.664 169.497C425.36 177.694 419.417 183.842 411.835 188.35C404.048 192.859 395.441 195.113 386.014 195.113C377.407 195.113 370.235 193.678 364.292 190.604C358.144 187.53 353.431 183.227 350.152 177.899L347.898 193.883H333.348V50.4345H350.152V106.175C358.759 94.2888 370.85 88.141 386.014 88.141C395.646 88.141 404.253 90.3952 411.835 94.4937ZM409.376 169.497C415.729 162.324 419.007 153.103 419.007 141.627C419.007 130.356 415.729 121.134 409.376 113.962C403.023 106.789 394.621 103.101 384.375 103.101C377.612 103.101 371.669 104.74 366.341 108.019C361.013 111.298 357.12 115.806 354.251 121.544C351.382 127.282 349.947 133.84 349.947 141.217C349.947 148.799 351.382 155.562 354.251 161.505C357.12 167.448 361.013 171.956 366.341 175.235C371.669 178.514 377.612 180.153 384.375 180.153C394.621 180.153 403.023 176.669 409.376 169.497Z" fill="white"/>
<path d="M476.531 188.35C468.744 183.842 462.596 177.694 458.292 169.497C453.784 161.505 451.735 152.283 451.735 141.627C451.735 131.176 453.784 121.954 458.292 113.757C462.596 105.765 468.744 99.412 476.531 94.9036C484.318 90.3952 493.335 88.141 503.581 88.141C513.623 88.141 522.639 90.3952 530.427 94.9036C538.214 99.412 544.362 105.765 548.87 113.757C553.174 121.954 555.428 131.176 555.428 141.627C555.428 152.283 553.174 161.505 548.87 169.497C544.362 177.694 538.214 183.842 530.427 188.35C522.639 192.859 513.623 195.113 503.581 195.113C493.335 195.113 484.318 192.859 476.531 188.35ZM521.615 175.235C526.943 171.956 531.041 167.448 533.91 161.505C536.779 155.767 538.214 149.004 538.214 141.627C538.214 134.249 536.779 127.692 533.91 121.749C531.041 116.011 526.943 111.298 521.615 108.019C516.287 104.74 510.344 103.101 503.581 103.101C496.614 103.101 490.671 104.74 485.343 108.019C480.015 111.298 476.121 116.011 473.252 121.749C470.383 127.692 468.949 134.249 468.949 141.627C468.949 149.004 470.383 155.767 473.252 161.505C476.121 167.448 480.015 171.956 485.343 175.235C490.671 178.514 496.614 180.153 503.581 180.153C510.344 180.153 516.287 178.514 521.615 175.235Z" fill="white"/>
<path d="M672.447 178.514V193.883H663.226C656.463 193.883 651.75 192.654 648.881 189.785C646.012 187.121 644.372 183.022 644.372 177.694C636.175 189.375 624.494 195.113 609.33 195.113C597.649 195.113 588.222 192.449 581.255 186.916C574.287 181.588 570.804 174.005 570.804 164.579C570.804 154.127 574.287 146.135 581.46 140.397C588.632 134.864 599.083 131.995 612.814 131.995H643.553V124.823C643.553 118.06 641.093 112.732 636.585 108.839C632.077 105.15 625.724 103.101 617.527 103.101C610.15 103.101 604.207 104.74 599.493 108.019C594.78 111.298 591.911 115.396 590.886 120.724H574.082C575.312 110.478 579.82 102.486 587.608 96.7479C595.395 91.01 605.641 88.141 618.347 88.141C631.667 88.141 641.913 91.4198 649.291 97.9775C656.668 104.535 660.357 113.757 660.357 125.848V170.931C660.357 176.055 662.611 178.514 667.324 178.514H672.447ZM643.553 146.135H611.174C595.6 146.135 587.813 152.078 587.813 163.554C587.813 168.882 589.862 172.981 593.96 176.055C598.059 179.333 603.592 180.768 610.559 180.768C620.806 180.768 628.798 178.104 634.741 172.776C640.479 167.448 643.553 160.275 643.553 151.258V146.135Z" fill="white"/>
<path d="M738.442 89.3705V105.765H730.04C719.998 105.765 712.826 109.248 708.522 115.806C704.219 122.569 702.17 130.766 702.17 140.602V193.883H685.366V89.3705H699.915L702.17 105.15C705.039 100.437 708.932 96.543 713.85 93.674C718.564 90.805 725.121 89.3705 733.728 89.3705H738.442Z" fill="white"/>
<path d="M846.989 50.4345V193.883H832.439L830.185 177.079C821.373 189.17 809.487 195.113 794.323 195.113C784.486 195.113 775.879 193.063 768.297 188.76C760.715 184.661 754.772 178.514 750.468 170.317C746.165 162.324 744.116 152.693 744.116 141.627C744.116 131.176 746.165 121.954 750.468 113.757C754.772 105.765 760.715 99.412 768.502 94.9036C776.084 90.3952 784.691 88.141 794.323 88.141C802.724 88.141 809.897 89.7804 816.045 92.8543C821.988 95.9282 826.701 100.027 830.185 105.355V50.4345H846.989ZM813.791 175.44C819.119 172.161 823.217 167.653 826.086 161.915C828.955 156.177 830.39 149.414 830.39 142.037C830.39 134.659 828.955 127.897 826.086 121.954C823.217 116.011 819.119 111.298 813.791 108.019C808.463 104.74 802.52 103.101 795.962 103.101C785.511 103.101 777.109 106.789 770.756 113.962C764.403 121.134 761.329 130.356 761.329 141.627C761.329 153.103 764.403 162.324 770.756 169.497C777.109 176.669 785.511 180.153 795.962 180.153C802.52 180.153 808.463 178.719 813.791 175.44Z" fill="white"/>
<path d="M886.069 52.0739C888.118 54.1232 889.143 56.7872 889.143 59.8611C889.143 63.1399 888.118 65.5991 886.069 67.6483C884.02 69.6976 881.356 70.7222 878.282 70.7222C875.003 70.7222 872.544 69.6976 870.494 67.6483C868.445 65.5991 867.421 63.1399 867.421 59.8611C867.421 56.7872 868.445 54.1232 870.494 52.0739C872.544 50.0246 875.003 49 878.282 49C881.356 49 884.02 50.0246 886.069 52.0739ZM869.88 89.3705H886.684V193.883H869.88V89.3705Z" fill="white"/>
<path d="M991.47 99.6169C999.257 107.404 1003.15 119.29 1003.15 135.684V193.883H986.347V136.709C986.347 126.052 983.888 117.855 978.969 112.117C974.051 106.379 967.084 103.51 958.067 103.51C948.23 103.51 940.443 106.994 934.91 113.757C929.172 120.724 926.508 129.946 926.508 141.627V193.883H909.704V89.3705H924.254L926.508 103.51C934.296 93.2642 945.771 88.141 960.936 88.141C973.641 88.141 983.683 92.0346 991.47 99.6169Z" fill="white"/>
<path d="M1123.76 89.3705V188.76C1123.76 220.319 1106.34 236.098 1071.91 236.098C1058.39 236.098 1047.32 233.024 1038.72 226.876C1030.11 220.729 1025.19 212.122 1023.96 200.646H1041.17C1042.4 207.203 1045.89 212.327 1051.63 215.81C1057.16 219.499 1064.33 221.138 1073.14 221.138C1095.68 221.138 1106.96 210.277 1106.96 188.145V175.85C1099.37 188.76 1087.49 195.113 1071.09 195.113C1061.26 195.113 1052.65 193.063 1045.07 188.76C1037.49 184.661 1031.54 178.514 1027.24 170.317C1022.94 162.324 1020.89 152.693 1020.89 141.627C1020.89 131.176 1022.94 121.954 1027.24 113.757C1031.54 105.765 1037.49 99.412 1045.27 94.9036C1052.86 90.3952 1061.46 88.141 1071.09 88.141C1079.5 88.141 1086.67 89.9853 1092.82 93.2642C1098.76 96.543 1103.47 101.256 1106.96 107.404L1109.21 89.3705H1123.76ZM1090.56 175.44C1095.89 172.161 1099.99 167.653 1102.86 161.915C1105.73 156.177 1107.16 149.414 1107.16 142.037C1107.16 134.659 1105.73 127.897 1102.86 121.954C1099.99 116.011 1095.89 111.298 1090.56 108.019C1085.23 104.74 1079.29 103.101 1072.73 103.101C1062.28 103.101 1053.88 106.789 1047.53 113.962C1041.17 121.134 1038.1 130.356 1038.1 141.627C1038.1 153.103 1041.17 162.324 1047.53 169.497C1053.88 176.669 1062.28 180.153 1072.73 180.153C1079.29 180.153 1085.23 178.719 1090.56 175.44Z" fill="white"/>
<path d="M1143.18 184.026C1144.39 182.818 1146.08 182.094 1148.13 182.094C1150.06 182.094 1151.75 182.818 1153.08 184.026C1154.28 185.233 1155.01 186.923 1155.01 188.854C1155.01 190.907 1154.28 192.597 1153.08 193.804C1151.75 195.011 1150.06 195.615 1148.13 195.615C1146.08 195.615 1144.39 195.011 1143.18 193.804C1141.85 192.597 1141.25 190.907 1141.25 188.854C1141.25 186.923 1141.85 185.233 1143.18 184.026Z" fill="white"/>
<path d="M1216.29 189.82C1211.46 193.683 1205.43 195.615 1198.19 195.615C1192.15 195.615 1186.96 194.287 1182.49 191.631C1177.9 188.975 1174.4 185.354 1171.99 180.525C1169.45 175.696 1168.25 170.264 1168.25 163.987C1168.25 157.83 1169.45 152.398 1171.99 147.569C1174.52 142.861 1178.15 139.24 1182.73 136.584C1187.32 133.928 1192.51 132.6 1198.55 132.6C1205.79 132.6 1211.71 134.532 1216.41 138.395C1221.12 142.258 1224.14 147.569 1225.35 154.329H1215.33C1214.36 150.466 1212.31 147.328 1209.29 144.913C1206.15 142.62 1202.53 141.413 1198.19 141.413C1192.27 141.413 1187.44 143.585 1183.82 147.69C1180.2 151.915 1178.39 157.347 1178.39 163.987C1178.39 170.747 1180.2 176.3 1183.82 180.525C1187.44 184.75 1192.27 186.802 1198.19 186.802C1202.65 186.802 1206.39 185.716 1209.53 183.301C1212.55 181.008 1214.48 177.748 1215.45 173.644H1225.35C1224.02 180.525 1221 185.957 1216.29 189.82Z" fill="white"/>
<path d="M1236.79 110.388H1246.69V194.89H1236.79V110.388Z" fill="white"/>
<path d="M1313.25 133.325V194.89H1304.67L1303.35 186.681C1298.64 192.717 1292.12 195.615 1283.67 195.615C1276.31 195.615 1270.39 193.442 1266.05 188.854C1261.58 184.388 1259.41 177.266 1259.41 167.608V133.325H1269.3V167.005C1269.3 173.403 1270.63 178.231 1273.41 181.611C1276.19 184.991 1280.17 186.561 1285.36 186.561C1290.91 186.561 1295.38 184.629 1298.52 180.525C1301.66 176.541 1303.35 171.109 1303.35 164.107V133.325H1313.25Z" fill="white"/>
<path d="M1372.97 136.342C1377.44 138.877 1380.94 142.499 1383.48 147.207C1386.01 152.036 1387.34 157.589 1387.34 164.107C1387.34 170.385 1386.01 175.817 1383.48 180.525C1380.94 185.354 1377.44 188.975 1372.97 191.631C1368.39 194.287 1363.32 195.615 1357.76 195.615C1352.69 195.615 1348.47 194.77 1344.97 192.959C1341.35 191.148 1338.57 188.613 1336.64 185.474L1335.31 194.89H1326.74V110.388H1336.64V143.223C1341.71 136.222 1348.83 132.6 1357.76 132.6C1363.44 132.6 1368.51 133.928 1372.97 136.342ZM1371.53 180.525C1375.27 176.3 1377.2 170.868 1377.2 164.107C1377.2 157.468 1375.27 152.036 1371.53 147.811C1367.78 143.585 1362.83 141.413 1356.8 141.413C1352.81 141.413 1349.31 142.378 1346.18 144.31C1343.04 146.241 1340.74 148.897 1339.05 152.277C1337.36 155.657 1336.52 159.52 1336.52 163.866C1336.52 168.332 1337.36 172.316 1339.05 175.817C1340.74 179.318 1343.04 181.974 1346.18 183.905C1349.31 185.836 1352.81 186.802 1356.8 186.802C1362.83 186.802 1367.78 184.75 1371.53 180.525Z" fill="white"/>
<rect x="0.5" y="0.5" width="1435.34" height="284.098" rx="4.5" stroke="#393939" stroke-dasharray="13 13"/>
<defs>
<radialGradient id="paint0_radial_260_26" cx="0" cy="0" r="1" gradientUnits="userSpaceOnUse" gradientTransform="translate(203.221 114.348) rotate(176.679) scale(163.794)">
<stop offset="0.0236653" stop-color="#FABB5C"/>
<stop offset="0.38184" stop-color="#D3A2F1"/>
<stop offset="0.699169" stop-color="#7471F6"/>
<stop offset="0.90841" stop-color="#5294F7"/>
</radialGradient>
<clipPath id="clip0_260_26">
<rect x="49" y="49" width="149.477" height="149.477" rx="74.7386" fill="white"/>
</clipPath>
</defs>
</svg>
