<svg width="52" height="40" viewBox="0 0 52 40" fill="none" xmlns="http://www.w3.org/2000/svg">
<path id="Vector" d="M43.9986 3.32424C40.7051 1.77465 37.1393 0.649945 33.4249 0.000114965C33.3924 -0.000936267 33.36 0.00523232 33.33 0.0181871C33.3001 0.0311419 33.2733 0.0505683 33.2516 0.0750959C32.8059 0.89988 32.2859 1.9746 31.9392 2.79938C27.9995 2.19954 23.9929 2.19954 20.0531 2.79938C19.7065 1.9496 19.1865 0.89988 18.716 0.0750959C18.6912 0.0251089 18.6169 0.000114965 18.5426 0.000114965C14.8282 0.649945 11.2872 1.77465 7.96901 3.32424C7.94424 3.32424 7.91948 3.34924 7.89472 3.37423C1.1593 13.5466 -0.697899 23.444 0.218317 33.2414C0.218317 33.2914 0.24308 33.3414 0.292605 33.3664C4.74987 36.6655 9.0338 38.665 13.2682 39.9896C13.3425 40.0146 13.4168 39.9896 13.4415 39.9397C14.432 38.565 15.3235 37.1154 16.0911 35.5908C16.1407 35.4908 16.0911 35.3909 15.9921 35.3659C14.5806 34.816 13.2434 34.1662 11.931 33.4164C11.832 33.3664 11.832 33.2164 11.9063 33.1414C12.1786 32.9415 12.451 32.7166 12.7234 32.5166C12.7729 32.4666 12.8472 32.4666 12.8968 32.4916C21.4151 36.4156 30.602 36.4156 39.0213 32.4916C39.0708 32.4666 39.1451 32.4666 39.1946 32.5166C39.467 32.7415 39.7394 32.9415 40.0118 33.1664C40.1108 33.2414 40.1108 33.3914 39.987 33.4414C38.6994 34.2162 37.3374 34.841 35.926 35.3909C35.8269 35.4158 35.8022 35.5408 35.8269 35.6158C36.6193 37.1404 37.5108 38.59 38.4765 39.9647C38.5508 39.9896 38.6251 40.0146 38.6994 39.9896C42.9585 38.665 47.2425 36.6655 51.6997 33.3664C51.7493 33.3414 51.774 33.2914 51.774 33.2414C52.8636 21.9194 49.9663 12.0969 44.0976 3.37423C44.0729 3.34924 44.0481 3.32424 43.9986 3.32424ZM17.3788 27.268C14.8282 27.268 12.6987 24.8936 12.6987 21.9694C12.6987 19.0451 14.7787 16.6708 17.3788 16.6708C20.0036 16.6708 22.0837 19.0701 22.0589 21.9694C22.0589 24.8936 19.9789 27.268 17.3788 27.268ZM34.6383 27.268C32.0878 27.268 29.9582 24.8936 29.9582 21.9694C29.9582 19.0451 32.0382 16.6708 34.6383 16.6708C37.2631 16.6708 39.3432 19.0701 39.3184 21.9694C39.3184 24.8936 37.2631 27.268 34.6383 27.268Z" fill="black"/>
</svg>
