<svg width="35" height="25" viewBox="0 0 35 25" fill="none" xmlns="http://www.w3.org/2000/svg">
<g id="Group 44">
<path id="Vector" d="M17.1947 10.8193L32.8895 0.736842C32.2585 0.263561 31.4923 0.005282 30.7035 0H3.68597C2.89722 0.005282 2.13099 0.263561 1.5 0.736842L17.1947 10.8193Z" fill="white"/>
<path id="Vector_2" d="M17.8561 13.3122L17.6474 13.4105H17.5491C17.436 13.461 17.316 13.4941 17.193 13.5087C17.0911 13.5216 16.9879 13.5216 16.886 13.5087H16.7877L16.579 13.4105L0.122807 2.77539C0.0441837 3.07202 0.00292859 3.37731 0 3.68416V20.8771C0 21.8543 0.388157 22.7914 1.07908 23.4823C1.77 24.1732 2.7071 24.5614 3.68421 24.5614H30.7018C31.6789 24.5614 32.616 24.1732 33.3069 23.4823C33.9978 22.7914 34.386 21.8543 34.386 20.8771V3.68416C34.383 3.37731 34.3418 3.07202 34.2632 2.77539L17.8561 13.3122Z" fill="white"/>
</g>
</svg>
