<svg width="32" height="32" viewBox="0 0 32 32" fill="none" xmlns="http://www.w3.org/2000/svg">
<path id="Vector" d="M30.9991 23.4608V27.977C31.0008 28.3962 30.9147 28.8112 30.7464 29.1954C30.5781 29.5795 30.3313 29.9243 30.0218 30.2078C29.7122 30.4912 29.3467 30.707 28.9488 30.8413C28.5508 30.9756 28.1292 31.0255 27.7108 30.9878C23.0692 30.4844 18.6106 28.9015 14.6934 26.3662C11.0488 24.0549 7.95889 20.9711 5.64301 17.3338C3.09379 13.4065 1.50736 8.93512 1.01224 4.28192C0.974549 3.86563 1.02412 3.44607 1.1578 3.04994C1.29149 2.65381 1.50635 2.28981 1.78871 1.9811C2.07108 1.67239 2.41475 1.42574 2.79786 1.25685C3.18097 1.08796 3.59512 1.00054 4.01394 1.00015H8.53912C9.27115 0.992955 9.98083 1.25167 10.5359 1.72806C11.0909 2.20445 11.4534 2.86601 11.5559 3.58944C11.7469 5.03473 12.1011 6.45381 12.6118 7.81962C12.8147 8.35844 12.8586 8.94403 12.7383 9.507C12.618 10.07 12.3386 10.5867 11.933 10.996L10.0173 12.9079C12.1646 16.6767 15.2914 19.7973 19.0677 21.9403L20.9833 20.0284C21.3935 19.6237 21.9112 19.3448 22.4753 19.2247C23.0394 19.1046 23.6262 19.1485 24.1661 19.351C25.5346 19.8607 26.9565 20.2142 28.4046 20.4048C29.1374 20.508 29.8065 20.8763 30.2849 21.4398C30.7633 22.0032 31.0174 22.7225 30.9991 23.4608Z" fill="white" stroke="white" stroke-width="2" stroke-linecap="round" stroke-linejoin="round"/>
</svg>
