<svg width="345" height="80" viewBox="0 0 345 80" fill="none" xmlns="http://www.w3.org/2000/svg">
<path d="M57.6127 29.7391C56.3981 27.5124 54.7281 25.817 52.6025 24.653C50.477 23.489 47.9972 22.907 45.1631 22.907C42.0254 22.907 39.242 23.6156 36.8128 25.0326C34.3836 26.4496 32.4858 28.4739 31.1194 31.1056C29.7529 33.7372 29.0697 36.7737 29.0697 40.215C29.0697 43.7576 29.7529 46.8447 31.1194 49.4763C32.5364 52.1079 34.4848 54.1323 36.9646 55.5493C39.4444 56.9663 42.3291 57.6748 45.6186 57.6748C49.6672 57.6748 52.9821 56.6121 55.5631 54.4865C58.1441 52.3104 59.8395 49.2992 60.6492 45.453H42.4303V37.3304H71.1251V46.5917C70.4166 50.286 68.8983 53.7021 66.5704 56.8398C64.2424 59.9775 61.2312 62.5079 57.5368 64.431C53.893 66.3035 49.7938 67.2398 45.239 67.2398C40.1276 67.2398 35.497 66.1011 31.3471 63.8237C27.2478 61.4958 24.0089 58.2821 21.6303 54.1829C19.3024 50.0836 18.1384 45.4277 18.1384 40.215C18.1384 35.0024 19.3024 30.3464 21.6303 26.2472C24.0089 22.0973 27.2478 18.8837 31.3471 16.6063C35.497 14.2784 40.1023 13.1144 45.1631 13.1144C51.1349 13.1144 56.3222 14.582 60.7251 17.5173C65.128 20.4019 68.1645 24.4759 69.8346 29.7391H57.6127ZM90.3672 22.3757V35.6603H108.207V44.0866H90.3672V58.1303H110.484V66.7843H79.7395V13.7217H110.484V22.3757H90.3672ZM166.213 66.7843H155.586L131.521 30.4224V66.7843H120.894V13.7217H131.521L155.586 50.1595V13.7217H166.213V66.7843ZM188.095 22.3757V35.6603H205.934V44.0866H188.095V58.1303H208.212V66.7843H177.467V13.7217H208.212V22.3757H188.095ZM236.916 67.3157C233.222 67.3157 229.882 66.6831 226.896 65.4179C223.961 64.1527 221.633 62.3308 219.912 59.9522C218.191 57.5736 217.306 54.7649 217.255 51.5259H228.642C228.794 53.7021 229.553 55.4228 230.919 56.688C232.336 57.9532 234.259 58.5858 236.689 58.5858C239.168 58.5858 241.117 58.0038 242.534 56.8398C243.951 55.6252 244.659 54.0564 244.659 52.1332C244.659 50.5644 244.179 49.2739 243.217 48.2617C242.255 47.2496 241.041 46.4651 239.573 45.9084C238.156 45.3011 236.183 44.6432 233.652 43.9347C230.211 42.9226 227.402 41.9357 225.226 40.9742C223.1 39.962 221.253 38.469 219.684 36.4953C218.166 34.471 217.407 31.7888 217.407 28.4486C217.407 25.3109 218.191 22.5781 219.76 20.2501C221.329 17.9221 223.53 16.1509 226.365 14.9363C229.199 13.6711 232.438 13.0385 236.081 13.0385C241.547 13.0385 245.975 14.3796 249.366 17.0618C252.807 19.6934 254.705 23.3878 255.059 28.145H243.369C243.268 26.3231 242.483 24.8302 241.016 23.6662C239.599 22.4516 237.701 21.8443 235.322 21.8443C233.247 21.8443 231.577 22.3757 230.312 23.4384C229.097 24.5012 228.49 26.0448 228.49 28.0691C228.49 29.4861 228.946 30.6754 229.856 31.637C230.818 32.5479 231.982 33.307 233.348 33.9143C234.765 34.471 236.739 35.1289 239.27 35.888C242.711 36.9002 245.52 37.9124 247.696 38.9245C249.872 39.9367 251.745 41.4549 253.313 43.4793C254.882 45.5036 255.667 48.1605 255.667 51.45C255.667 54.2841 254.933 56.9157 253.465 59.3449C251.998 61.7741 249.847 63.7225 247.013 65.1901C244.179 66.6072 240.813 67.3157 236.916 67.3157ZM276.26 13.7976V66.7843H265.632V13.7976H276.26ZM305.806 67.3157C302.112 67.3157 298.772 66.6831 295.786 65.4179C292.851 64.1527 290.523 62.3308 288.802 59.9522C287.081 57.5736 286.196 54.7649 286.145 51.5259H297.532C297.684 53.7021 298.443 55.4228 299.809 56.688C301.226 57.9532 303.15 58.5858 305.579 58.5858C308.058 58.5858 310.007 58.0038 311.424 56.8398C312.841 55.6252 313.549 54.0564 313.549 52.1332C313.549 50.5644 313.069 49.2739 312.107 48.2617C311.146 47.2496 309.931 46.4651 308.463 45.9084C307.046 45.3011 305.073 44.6432 302.542 43.9347C299.101 42.9226 296.292 41.9357 294.116 40.9742C291.99 39.962 290.143 38.469 288.574 36.4953C287.056 34.471 286.297 31.7888 286.297 28.4486C286.297 25.3109 287.081 22.5781 288.65 20.2501C290.219 17.9221 292.421 16.1509 295.255 14.9363C298.089 13.6711 301.328 13.0385 304.971 13.0385C310.437 13.0385 314.865 14.3796 318.256 17.0618C321.697 19.6934 323.595 23.3878 323.949 28.145H312.259C312.158 26.3231 311.373 24.8302 309.906 23.6662C308.489 22.4516 306.591 21.8443 304.212 21.8443C302.137 21.8443 300.467 22.3757 299.202 23.4384C297.987 24.5012 297.38 26.0448 297.38 28.0691C297.38 29.4861 297.836 30.6754 298.747 31.637C299.708 32.5479 300.872 33.307 302.239 33.9143C303.656 34.471 305.629 35.1289 308.16 35.888C311.601 36.9002 314.41 37.9124 316.586 38.9245C318.762 39.9367 320.635 41.4549 322.203 43.4793C323.772 45.5036 324.557 48.1605 324.557 51.45C324.557 54.2841 323.823 56.9157 322.355 59.3449C320.888 61.7741 318.737 63.7225 315.903 65.1901C313.069 66.6072 309.703 67.3157 305.806 67.3157Z" fill="url(#paint0_linear_228_960)"/>
<mask id="path-2-outside-1_228_960" maskUnits="userSpaceOnUse" x="-0.0859375" y="-0.00585938" width="36" height="42" fill="black">
<rect fill="white" x="-0.0859375" y="-0.00585938" width="36" height="42"/>
<path d="M3.91406 3.99414H35.4815V41.5744H3.91406V3.99414Z"/>
</mask>
<path d="M3.91406 3.99414V0.987717H0.907639V3.99414H3.91406ZM3.91406 7.00056H35.4815V0.987717H3.91406V7.00056ZM6.92049 41.5744V3.99414H0.907639V41.5744H6.92049Z" fill="#1AF99B" mask="url(#path-2-outside-1_228_960)"/>
<mask id="path-4-outside-2_228_960" maskUnits="userSpaceOnUse" x="309.049" y="38.8999" width="36" height="42" fill="black">
<rect fill="white" x="309.049" y="38.8999" width="36" height="42"/>
<path d="M341.049 76.8999L309.481 76.8999L309.481 39.3196L341.049 39.3196L341.049 76.8999Z"/>
</mask>
<path d="M341.049 76.8999L341.049 79.9063L344.055 79.9063L344.055 76.8999L341.049 76.8999ZM341.049 73.8935L309.481 73.8935L309.481 79.9063L341.049 79.9063L341.049 73.8935ZM338.042 39.3196L338.042 76.8999L344.055 76.8999L344.055 39.3196L338.042 39.3196Z" fill="#7A27EB" mask="url(#path-4-outside-2_228_960)"/>
<defs>
<linearGradient id="paint0_linear_228_960" x1="329.481" y1="22.7843" x2="161.55" y2="197.878" gradientUnits="userSpaceOnUse">
<stop offset="0.0202788" stop-color="#19FB9B"/>
<stop offset="1" stop-color="#8C01FA"/>
</linearGradient>
</defs>
</svg>
